<svg width="8" height="8" viewBox="0 0 8 8" fill="none" xmlns="http://www.w3.org/2000/svg">
<path fill-rule="evenodd" clip-rule="evenodd" d="M4.00017 0.333344C4.12705 0.333344 4.24292 0.405368 4.29907 0.519136L5.25159 2.44883L7.38171 2.76018C7.50723 2.77853 7.61146 2.86653 7.65059 2.9872C7.68971 3.10787 7.65696 3.24029 7.56608 3.3288L6.02501 4.8298L6.38871 6.95033C6.41016 7.07539 6.35874 7.20179 6.25608 7.27636C6.15342 7.35094 6.01733 7.36076 5.90502 7.3017L4.00017 6.29996L2.09532 7.3017C1.98302 7.36076 1.84692 7.35094 1.74426 7.27636C1.6416 7.20179 1.59019 7.07539 1.61164 6.95033L1.97533 4.8298L0.434262 3.3288C0.343389 3.24029 0.310631 3.10787 0.349757 2.9872C0.388883 2.86653 0.49311 2.77853 0.61863 2.76018L2.74875 2.44883L3.70127 0.519136C3.75743 0.405368 3.8733 0.333344 4.00017 0.333344ZM4.00017 1.41976L3.26907 2.90089C3.22056 2.99917 3.12683 3.06732 3.01838 3.08317L1.38298 3.32221L2.56608 4.47456C2.64471 4.55114 2.6806 4.66152 2.66204 4.76969L2.3829 6.39724L3.84502 5.62832C3.94215 5.57724 4.0582 5.57724 4.15532 5.62832L5.61745 6.39723L5.3383 4.76969C5.31975 4.66152 5.35564 4.55114 5.43426 4.47456L6.61737 3.32221L4.98196 3.08317C4.87351 3.06732 4.77978 2.99917 4.73127 2.90089L4.00017 1.41976Z" fill="#F2994A"/>
<path d="M2.33333 5L1 3L3 2.66667L4 1L5 2.66667L7 3.33333L5.66667 4.66667L6 7L4 6L2 7L2.33333 5Z" fill="#F2994A"/>
</svg>
